PathFileType	4	(X/Y/Z)	C:/Users/opensim2020/Desktop/walking_exp_matlab/subject06_walking22_straight_01.trc	
DataRate	CameraRate	NumFrames	NumMarkers	Units	OrigDataRate	OrigDataStartFrame	OrigNumFrames	
100.00	100.00	4	44	mm	100.00	812	141	
Frame#	Time	LFHD			RFHD			LBHD			RBHD			C7			T10			CLAV			STRN			RBAK			LSHO			LUPA			LELB			LFRM			LWRA			LWRB			LFIN			RSHO			RUPA			RELB			RFRM			RWRA			RWRB			RFIN			LASI			RASI			LPSI			RPSI			LTHI			LKNE			LTIB			LANK			LHEE			LTOE			RTHI			RKNE			RTIB			RANK			RHEE			RTOE			*39			*40			*41			*42			*43			
		X1	Y1	Z1	X2	Y2	Z2	X3	Y3	Z3	X4	Y4	Z4	X5	Y5	Z5	X6	Y6	Z6	X7	Y7	Z7	X8	Y8	Z8	X9	Y9	Z9	X10	Y10	Z10	X11	Y11	Z11	X12	Y12	Z12	X13	Y13	Z13	X14	Y14	Z14	X15	Y15	Z15	X16	Y16	Z16	X17	Y17	Z17	X18	Y18	Z18	X19	Y19	Z19	X20	Y20	Z20	X21	Y21	Z21	X22	Y22	Z22	X23	Y23	Z23	X24	Y24	Z24	X25	Y25	Z25	X26	Y26	Z26	X27	Y27	Z27	X28	Y28	Z28	X29	Y29	Z29	X30	Y30	Z30	X31	Y31	Z31	X32	Y32	Z32	X33	Y33	Z33	X34	Y34	Z34	X35	Y35	Z35	X36	Y36	Z36	X37	Y37	Z37	X38	Y38	Z38	X39	Y39	Z39	X40	Y40	Z40	X41	Y41	Z41	X42	Y42	Z42	X43	Y43	Z43	X44	Y44	Z44	

71	0.700	1391.25574	-114.23851	1655.26404	1522.17969	-101.35555	1645.45667	1406.11804	-250.84775	1613.10999	1534.97668	-236.18298	1608.49683	1461.15161	-259.12848	1454.62305	1460.94641	-315.99570	1128.56311	1451.70190	-155.93439	1370.03699	1439.88916	-128.71767	1192.88354	1544.78271	-337.50165	1287.79968	1295.05566	-220.66443	1409.49255	1217.04553	-261.53256	1213.30139	1202.65601	-286.58380	1104.59961	1170.62109	-287.36966	955.97742	1199.80457	-240.86205	831.04041	1167.56738	-304.70123	838.18683	1160.27942	-278.80615	750.94672	1614.37170	-186.09712	1401.70642	1712.64209	-218.15370	1209.30920	1730.58594	-203.97336	1089.51538	1742.75513	-158.89478	978.89227	1696.20142	-68.85133	864.71454	1743.20959	-113.37694	848.82617	1735.08276	-55.06625	788.14063	1346.12830	-146.61351	961.51129	1564.40515	-148.62454	963.95142	1371.63196	-304.57349	990.87323	1539.48828	-298.84525	997.96796	1287.48743	-129.82301	660.12756	1317.31689	-63.70886	512.30011	1329.63538	-155.12257	278.95023	1370.87537	-204.82283	114.84564	1419.93115	-245.10870	109.29911	1361.39282	-76.64173	54.17904	1605.89026	-232.36711	631.20587	1579.92590	-246.00401	506.23074	1567.44556	-345.92459	255.24283	1511.06238	-394.32483	76.95741	1467.16675	-438.28717	57.36287	1504.85681	-243.64687	37.16445	1459.95850	-204.03909	1702.86450												 
72	0.710	1390.72534	-101.15438	1652.94165	1521.65295	-87.97868	1643.32581	1405.99365	-237.70580	1610.77710	1534.64734	-223.16429	1606.41748	1461.18054	-246.12384	1452.53442	1461.04297	-303.16751	1126.53271	1451.70813	-142.94809	1367.76221	1440.31934	-115.96005	1190.58215	1545.04919	-324.53119	1285.96094	1295.03442	-207.71187	1407.09375	1217.79883	-251.20915	1211.34192	1203.05920	-278.74799	1103.25977	1170.91980	-281.90204	954.70911	1199.67725	-237.29269	828.92804	1167.77356	-301.24503	837.35181	1160.25647	-276.96359	749.59479	1614.35010	-173.15771	1399.81982	1713.09509	-203.89302	1207.52820	1731.29639	-188.44363	1088.03027	1742.78308	-141.02887	978.54633	1695.03162	-48.38802	867.05072	1742.35706	-92.25143	849.75598	1733.72754	-32.35497	790.72424	1346.91187	-132.92604	959.54126	1565.34375	-136.17897	961.88220	1371.47742	-291.11465	988.55988	1539.31030	-286.40741	995.86707	1287.66553	-113.98222	659.18091	1317.45459	-45.92358	512.13861	1330.09473	-125.25106	273.30545	1371.84399	-164.62527	106.51026	1421.90186	-203.25342	98.33120	1362.27429	-33.24699	52.75310	1606.04004	-223.35291	629.73712	1580.42261	-238.85442	504.74002	1567.20337	-342.96304	255.11514	1510.61182	-393.93964	77.83138	1466.31006	-437.63904	58.55936	1505.32336	-243.46144	37.31123	1459.52893	-190.83121	1700.64502												 
73	0.720	1390.17041	-87.93343	1650.44873	1521.11475	-74.56539	1641.01221	1405.75903	-224.46614	1608.32764	1534.37451	-209.87387	1604.14551	1461.16968	-233.07628	1450.32666	1461.05310	-290.22424	1124.29663	1451.67883	-129.88364	1365.31836	1440.71216	-103.01466	1188.18054	1545.26575	-311.61029	1283.90491	1294.94800	-194.59584	1404.58545	1217.79858	-241.24280	1209.60083	1203.63306	-270.31146	1101.84082	1171.31653	-276.30624	953.46790	1199.62463	-233.31218	826.90948	1168.26538	-297.37582	836.45123	1160.57422	-274.30658	748.17859	1614.25659	-160.13065	1397.78650	1713.41663	-189.76556	1205.62585	1731.84326	-173.13177	1086.39063	1742.60706	-123.45863	978.11493	1693.90857	-28.19639	869.32709	1741.41882	-71.37782	850.69348	1732.17310	-10.09775	793.19122	1347.59766	-119.18623	957.29883	1566.07080	-123.52907	959.67139	1371.26050	-277.31833	986.03137	1539.04089	-273.44116	993.47742	1287.25378	-99.10542	657.41876	1317.20837	-29.32494	511.42917	1330.51416	-95.27679	267.69260	1372.95178	-123.93526	98.82069	1423.12341	-162.13371	88.99935	1363.64685	10.18954	51.94155	1606.14294	-214.13025	628.10760	1580.84021	-231.47565	503.14011	1566.95618	-340.21085	255.31456	1510.07703	-393.41763	78.68659	1465.61829	-437.30823	60.10315	1505.79236	-243.66399	37.14206	1459.13232	-177.53059	1698.25195												 
74	0.730	1389.67664	-74.59805	1647.78748	1520.60620	-61.05836	1638.55737	1405.50745	-211.18137	1605.68689	1534.18042	-196.22029	1601.66968	1460.90894	-219.51961	1447.79736	1460.85071	-276.95541	1121.76990	1451.60254	-116.67717	1362.74939	1441.01257	-89.96297	1185.61023	1545.30872	-298.52496	1281.59558	1294.88245	-181.51317	1401.95764	1218.10229	-230.98454	1207.67346	1204.16345	-261.55042	1100.35278	1171.81689	-270.15826	952.11694	1199.44946	-228.82446	824.95990	1168.92493	-293.25699	835.46606	1160.44739	-271.77921	747.02106	1614.13892	-147.07849	1395.66296	1713.59729	-175.75349	1203.55664	1732.27478	-158.00046	1084.69568	1742.66956	-105.80712	977.61981	1692.82727	-8.37594	871.47510	1740.62988	-50.76656	851.56189	1730.84875	11.83399	795.73303	1348.30420	-105.22007	954.91309	1566.96729	-110.85582	957.35138	1370.95972	-263.37521	983.48486	1538.77808	-260.61993	991.00671	1286.93970	-84.77581	655.23694	1316.89160	-13.77327	510.14032	1331.05542	-65.51234	262.17822	1374.31519	-83.16903	91.99142	1424.60596	-120.53452	80.69418	1365.50183	53.86562	52.11221	1606.21484	-204.91739	626.35565	1580.90540	-223.72327	501.49484	1566.67712	-337.17825	255.47888	1509.51196	-392.86740	79.63548	1464.61841	-436.48984	61.41479	1505.98938	-243.46375	36.94984	1458.69238	-164.05807	1695.72192												 
